<?xml version="1.0" standalone="no"?>
<!DOCTYPE svg PUBLIC "-//W3C//DTD SVG 20010904//EN"
 "http://www.w3.org/TR/2001/REC-SVG-20010904/DTD/svg10.dtd">
<svg version="1.0" xmlns="http://www.w3.org/2000/svg"
 width="468.000000pt" height="468.000000pt" viewBox="0 0 468.000000 468.000000"
 preserveAspectRatio="xMidYMid meet">
<metadata>
Created by potrace 1.14, written by Peter Selinger 2001-2017
</metadata>
<g transform="translate(0.000000,468.000000) scale(0.100000,-0.100000)"
fill="#000000" stroke="none">
<path d="M2040 3708 c-131 -36 -175 -53 -241 -94 -41 -25 -87 -58 -104 -74
-16 -15 -44 -37 -62 -47 -30 -18 -81 -85 -113 -148 -8 -17 -25 -46 -37 -65
-14 -23 -26 -64 -33 -115 -6 -44 -13 -93 -15 -110 -9 -57 -6 -270 4 -304 21
-70 31 -248 19 -330 -22 -146 -11 -205 57 -307 19 -29 35 -58 35 -64 0 -19 82
-100 101 -100 9 0 37 -9 62 -19 49 -21 52 -27 81 -156 19 -87 25 -154 16 -180
-4 -10 -2 -36 3 -57 14 -56 3 -85 -35 -94 -23 -5 -54 -29 -103 -82 -75 -80
-167 -156 -210 -172 -14 -5 -43 -23 -63 -39 -20 -17 -61 -39 -91 -51 -30 -11
-72 -32 -95 -45 -28 -16 -52 -23 -73 -20 -18 2 -35 0 -38 -6 -4 -5 -14 -9 -23
-9 -9 0 -28 -11 -43 -26 -14 -14 -35 -25 -45 -25 -10 1 -34 1 -52 1 -35 1 -78
-21 -100 -52 -7 -10 -22 -18 -33 -18 -11 0 -32 -6 -47 -14 -32 -16 -122 -110
-122 -126 0 -19 -83 -50 -135 -50 -35 0 -64 -8 -94 -25 -24 -14 -51 -23 -60
-21 -9 3 -31 -7 -50 -23 -33 -27 -33 -28 -23 -76 12 -59 3 -89 -35 -107 -22
-11 -31 -25 -46 -83 -10 -38 -31 -110 -47 -160 -16 -50 -33 -110 -40 -135 -6
-25 -13 -53 -16 -62 -5 -17 109 -18 2290 -18 l2296 0 -1 128 c-1 70 -4 116 -6
102 -6 -30 -21 -50 -38 -50 -7 0 -19 30 -29 67 -15 62 -31 92 -88 165 -19 24
-19 29 -7 44 13 16 12 17 -9 12 -16 -5 -27 1 -42 19 -11 14 -20 30 -20 36 0 6
-10 21 -22 34 -12 13 -23 33 -23 45 0 28 -29 46 -52 32 -19 -11 -189 13 -248
36 -65 25 -172 84 -215 119 -25 21 -63 47 -85 60 -22 12 -48 35 -57 52 -10 16
-25 32 -35 36 -10 4 -22 12 -26 19 -6 10 -13 11 -32 2 -20 -9 -31 -6 -67 15
-24 14 -54 37 -67 51 -14 14 -29 26 -35 26 -11 0 -29 16 -76 67 -11 13 -28 23
-39 23 -14 0 -17 6 -13 26 3 18 1 25 -9 23 -17 -4 -56 16 -86 44 -13 11 -23
18 -23 15 0 -12 -98 14 -147 39 -35 17 -53 33 -53 45 0 10 -5 18 -10 18 -6 0
-3 16 6 38 20 46 33 87 73 221 17 57 36 111 43 119 8 9 12 44 11 95 -2 59 2
88 13 105 20 30 21 180 3 240 -9 31 -9 48 -1 66 8 18 5 37 -15 92 -49 135 -48
133 -30 163 10 18 15 42 12 67 -2 21 -7 70 -10 108 -3 38 -10 77 -15 87 -6 10
-13 62 -16 116 -5 104 -26 229 -49 303 -8 25 -19 74 -25 109 -15 83 -38 128
-88 168 -24 19 -42 43 -45 61 -3 16 -14 32 -24 35 -10 4 -27 12 -38 19 -11 7
-38 25 -60 39 -105 69 -137 77 -336 83 -101 3 -199 5 -217 5 -21 0 -31 4 -27
11 4 6 -10 10 -39 10 -24 0 -50 2 -58 4 -7 2 -29 0 -48 -6z"/>
</g>
</svg>
